/* XPM */
static char * close_prelight_xpm[] = {
"24 26 23 1",
" 	c None",
".	c #DEC9CA",
"+	c #EF7F87",
"@	c #FC4855",
"#	c #FD3B49",
"$	c #ED7F87",
"%	c #DEC8C9",
"&	c #E2B1B5",
"*	c #FF4D55",
"=	c #FF575B",
"-	c #FF5F63",
";	c #DFC9CA",
">	c #FF5D61",
",	c #FF4B58",
"'	c #DDC5C7",
")	c #EE7E86",
"!	c #FF4754",
"~	c #FF3B44",
"{	c #DFCECF",
"]	c #E3B1B5",
"^	c #FE4855",
"/	c #FF3B49",
"(	c #DECACB",
"                        ",
"                        ",
"                        ",
"                        ",
"                        ",
"                        ",
"                        ",
"       .+@#@$%          ",
"      &*=---=*&         ",
"     ;*>->>>->,'        ",
"     )=->>>>>-=)        ",
"     !->>>>>>>-!        ",
"     ~->>>>>>>-~        ",
"     !->>>>>>>-!        ",
"     )=->>>>>-=)        ",
"     .*>->>>->*{        ",
"      ]*=---=*]         ",
"       ;+^/^+(          ",
"                        ",
"                        ",
"                        ",
"                        ",
"                        ",
"                        ",
"                        ",
"                        "};
