/* XPM */
static char * close_inactive_xpm[] = {
"24 26 14 1",
" 	c None",
".	c #D8D8D8",
"+	c #C6C6C6",
"@	c #BDBDBD",
"#	c #BCBCBC",
"$	c #CECECE",
"%	c #BFBFBF",
"&	c #C3C3C3",
"*	c #DDDDDD",
"=	c #D2D2D2",
"-	c #C5C5C5",
";	c #C4C4C4",
">	c #D6D6D6",
",	c #C7C7C7",
"                        ",
"                        ",
"                        ",
"                        ",
"                        ",
"                        ",
"                        ",
"       .+@#@+.          ",
"      $%&+++&%*         ",
"     =%-------%=        ",
"     -;-------;-        ",
"     @+-------+@        ",
"     #+-------+#        ",
"     @+-------+@        ",
"     -;-------;-        ",
"     >%-------%=        ",
"      $%&+++&%$         ",
"       =+@#@,=          ",
"                        ",
"                        ",
"                        ",
"                        ",
"                        ",
"                        ",
"                        ",
"                        "};
