/* XPM */
static char * close_active_xpm[] = {
"24 26 22 1",
" 	c None",
".	c #D5C4C5",
"+	c #D77E85",
"@	c #DB4B54",
"#	c #DF3943",
"$	c #D5ADB1",
"%	c #DF4E56",
"&	c #ED4C51",
"*	c #F15255",
"=	c #F05054",
"-	c #F05155",
";	c #DF4D56",
">	c #D3C1C2",
",	c #D67E84",
"'	c #EE4C51",
")	c #F15155",
"!	c #DB4A54",
"~	c #F25256",
"{	c #E03A43",
"]	c #F25255",
"^	c #D7C9CA",
"/	c #D5C5C6",
"                        ",
"                        ",
"                        ",
"                        ",
"                        ",
"                        ",
"                        ",
"       .+@#@+.          ",
"      $%&***&%$         ",
"     .%=-===-=;>        ",
"     ,')=====)',        ",
"     !~=======~!        ",
"     {]=======]{        ",
"     !~=======~!        ",
"     ,')=====)',        ",
"     .%=-===-=%^        ",
"      $%&***&%$         ",
"       .+@#@+/          ",
"                        ",
"                        ",
"                        ",
"                        ",
"                        ",
"                        ",
"                        ",
"                        "};
