/* XPM */
static char * close_pressed_xpm[] = {
"24 26 19 1",
" 	c None",
".	c #C9BFC0",
"+	c #BA8A8D",
"@	c #B2666B",
"#	c #B15960",
"$	c #C8BEBF",
"%	c #C3ABAE",
"&	c #B6686C",
"*	c #C06A6C",
"=	c #C56F71",
"-	c #C36D6F",
";	c #C36F71",
">	c #B5676D",
",	c #C6BBBC",
"'	c #BA8A8E",
")	c #C1696B",
"!	c #C46E70",
"~	c #B25A5E",
"{	c #CAC2C2",
"                        ",
"                        ",
"                        ",
"                        ",
"                        ",
"                        ",
"                        ",
"       .+@#@+$          ",
"      %&*===*&%         ",
"     $&-;---;->,        ",
"     ')!-----!)'        ",
"     @=-------=@        ",
"     ~=-------=~        ",
"     @=-------=@        ",
"     ')!-----!)'        ",
"     $&-;---;-&{        ",
"      %&*===*&%         ",
"       $+@#@+$          ",
"                        ",
"                        ",
"                        ",
"                        ",
"                        ",
"                        ",
"                        ",
"                        "};
