/* XPM */
static char * hide_active_xpm[] = {
"24 26 22 1",
" 	c None",
".	c #D5D0C2",
"+	c #DABB72",
"@	c #E0AF36",
"#	c #E7AF20",
"$	c #DABB71",
"%	c #D5CFC1",
"&	c #D8CAA8",
"*	c #E6B438",
"=	c #F5C132",
"-	c #F9C738",
";	c #D7C9A7",
">	c #D6D0C2",
",	c #E5B438",
"'	c #F8C536",
")	c #F8C637",
"!	c #F9C637",
"~	c #E1AF36",
"{	c #FAC738",
"]	c #E8B020",
"^	c #D9D4C9",
"/	c #DBBB72",
"                        ",
"                        ",
"                        ",
"                        ",
"                        ",
"                        ",
"                        ",
"       .+@#@$%          ",
"      &*=---=*;         ",
"     >,')''')',>        ",
"     +=!'''''!=+        ",
"     ~{'''''''{~        ",
"     ]{'''''''{]        ",
"     ~{'''''''{~        ",
"     +=!'''''!=+        ",
"     >,')''')',^        ",
"      &*=---=*&         ",
"       >/~#~/>          ",
"                        ",
"                        ",
"                        ",
"                        ",
"                        ",
"                        ",
"                        ",
"                        "};
