/* XPM */
static char * hide_pressed_xpm[] = {
"24 26 33 1",
" 	c None",
".	c #C9C6BC",
"+	c #BAAA82",
"@	c #B19657",
"#	c #AF944B",
"$	c #C7C3BB",
"%	c #C6BDA8",
"&	c #B69B5A",
"*	c #C0A55A",
"=	c #C4A95E",
"-	c #C6BEA9",
";	c #C9C5BC",
">	c #B59B5B",
",	c #C3A75B",
"'	c #C3A85D",
")	c #C9C5BD",
"!	c #C4A85C",
"~	c #B29858",
"{	c #C5A95D",
"]	c #B79A55",
"^	c #B69845",
"/	c #B89B54",
"(	c #BCAB81",
"_	c #C8C4BC",
":	c #CDCAC3",
"<	c #C4BCA8",
"[	c #C6BEA8",
"}	c #BDAC82",
"|	c #B59A56",
"1	c #B39648",
"2	c #B59956",
"3	c #BBAB83",
"4	c #CAC5BD",
"                        ",
"                        ",
"                        ",
"                        ",
"                        ",
"                        ",
"                        ",
"       .+@#@+$          ",
"      %&*===*&-         ",
"     ;>,',,,',>)        ",
"     +*!,,,,,!*+        ",
"     ~{,,,,,,,{]        ",
"     #{,,,,,,,{^        ",
"     ~{,,,,,,,{/        ",
"     +*!,,,,,!*(        ",
"     _>,',,,',>:        ",
"      <&*===*&[         ",
"       ;}|1234          ",
"                        ",
"                        ",
"                        ",
"                        ",
"                        ",
"                        ",
"                        ",
"                        "};
