/* XPM */
static char * hide_prelight_xpm[] = {
"24 26 24 1",
" 	c None",
".	c #DED8C7",
"+	c #F5CE71",
"@	c #FEC439",
"#	c #FDC42C",
"$	c #FDC439",
"%	c #F4CD71",
"&	c #DED6C5",
"*	c #E7D5AB",
"=	c #FFC73F",
"-	c #FFCD47",
";	c #FFD051",
">	c #E5D4A9",
",	c #E0D8C6",
"'	c #FFCF4D",
")	c #FFCF4F",
"!	c #EFCA71",
"~	c #FFC53B",
"{	c #FDC43B",
"]	c #FFC62D",
"^	c #E1DBCD",
"/	c #E6D5AB",
"(	c #DFD7C5",
"_	c #F6CF72",
"                        ",
"                        ",
"                        ",
"                        ",
"                        ",
"                        ",
"                        ",
"       .+@#$%&          ",
"      *=-;;;-=>         ",
"     ,=')''')'=&        ",
"     +-)''''')-!        ",
"     ~;''''''';{        ",
"     ];''''''';]        ",
"     ~;''''''';~        ",
"     +-)''''')-+        ",
"     ,=')''')'=^        ",
"      /=-;;;-=*         ",
"       (_~]~_,          ",
"                        ",
"                        ",
"                        ",
"                        ",
"                        ",
"                        ",
"                        ",
"                        "};
